<svg width="69" height="73" viewBox="0 0 69 73" fill="none" xmlns="http://www.w3.org/2000/svg">
<path d="M69 22.0923V14.4081C69 6.33969 55.9669 -6.10352e-05 39.2917 -6.10352e-05C22.6166 -6.10352e-05 9.58349 6.33969 9.58349 14.4081V21.9964C3.64164 24.5894 0 28.4319 0 32.6578V40.3421C0 44.6646 3.64164 48.4104 9.58349 51.0035L9.5827 58.5918C9.5827 66.6602 22.6158 72.9999 39.2909 72.9999C55.9657 72.9999 68.9992 66.6602 68.9992 58.5918V50.9076C68.9992 46.5851 65.3575 42.8392 59.4157 40.2461V32.7544C65.3583 30.1605 69 26.4146 69 22.0921L69 22.0923ZM67.0831 58.5918C67.0831 60.5131 66.0286 62.3377 64.2082 64.0663V58.8794L64.4959 58.591C65.454 57.8225 66.3164 56.9582 67.0831 56.0939L67.0831 58.5918ZM11.4993 56.0947C12.1704 56.959 13.0328 57.8234 14.0864 58.5918C14.1821 58.6877 14.2777 58.7835 14.3742 58.8802V64.0671C12.5537 62.4343 11.4993 60.6088 11.4993 58.5926L11.4993 56.0947ZM16.2903 65.5076V60.1288C17.1527 60.6089 18.1108 61.089 19.1652 61.5699V67.0444C18.1115 66.5635 17.1535 66.0834 16.2903 65.5074V65.5076ZM21.0822 67.9089V62.3377C22.0402 62.7219 22.999 63.0103 23.9571 63.2979V68.9649C22.9034 68.5807 21.9446 68.2931 21.0822 67.9088V67.9089ZM25.874 69.4459V63.7789C26.8321 63.9707 27.7909 64.1632 28.7489 64.3549V70.1178C27.7909 69.9261 26.832 69.7336 25.874 69.446V69.4459ZM30.6659 70.4062V64.6432C31.6239 64.7391 32.5827 64.835 33.5408 65.0275V70.7904C32.5827 70.6946 31.6239 70.5979 30.6659 70.4062ZM38.3326 71.0788C37.3746 71.0788 36.4157 70.9829 35.4577 70.9829V65.22C36.4158 65.3159 37.3746 65.3159 38.3326 65.3159V71.0788ZM62.2898 60.129V65.5078C61.4274 66.0837 60.4694 66.5646 59.4149 67.1406V61.6661C60.4694 61.0893 61.4274 60.6092 62.2898 60.1291V60.129ZM57.498 62.3379V67.9091C56.6356 68.2934 55.6775 68.5818 54.6231 68.966V63.299C55.5811 63.0106 56.54 62.7222 57.498 62.338V62.3379ZM52.7061 63.779V69.446C51.7481 69.6377 50.7893 69.9261 49.8312 70.1186V64.4516C50.7901 64.2591 51.7481 64.0666 52.7061 63.779V63.779ZM47.9151 64.7392V70.5022C46.9571 70.598 45.9982 70.7906 45.0402 70.8864V65.1235C45.9982 64.931 46.9563 64.8351 47.9151 64.7392ZM43.1232 65.2194V70.9823C42.1652 71.0781 41.2064 71.0781 40.2483 71.0781V65.3152C41.2064 65.3152 42.1644 65.2194 43.1232 65.2194ZM61.0439 58.592C55.8688 61.4735 48.0108 63.3948 39.2904 63.3948C30.5691 63.3948 22.7112 61.4735 17.5368 58.592C14.183 56.6708 11.9783 54.3661 11.595 51.8681C16.5781 53.6927 22.8077 54.7496 29.7077 54.7496C45.041 54.7496 57.3074 49.3708 59.1286 42.2628C64.016 44.5682 67.0831 47.5456 67.0831 50.9072C67.0831 53.7894 64.7829 56.4792 61.0455 58.5922L61.0439 58.592ZM52.7061 41.8792V47.258C51.8437 47.834 50.8857 48.3149 49.8312 48.8909V43.4164C50.8857 42.8396 51.8437 42.3595 52.7061 41.8794V41.8792ZM47.9151 44.0881V49.6594C47.0527 50.0437 46.0947 50.332 45.0402 50.7163V45.0493C45.9982 44.7609 46.9563 44.4725 47.9151 44.0883V44.0881ZM43.1232 45.5293V51.1963C42.1652 51.388 41.2064 51.6764 40.2483 51.8689V46.2019C41.2064 46.0094 42.1644 45.8169 43.1232 45.5293ZM38.3314 46.4895V52.2524C37.3734 52.3483 36.4145 52.5408 35.4565 52.6367V46.8738C36.4145 46.6812 37.3726 46.5854 38.3314 46.4895ZM33.5396 46.9696V52.7326C32.5815 52.8284 31.6227 52.8284 30.6646 52.8284V47.0655C31.6227 47.0655 32.5815 46.9696 33.5396 46.9696ZM11.4987 47.4498V44.0882C11.882 44.1841 12.2654 44.3766 12.5531 44.4725C12.9365 44.5683 13.2242 44.6642 13.6076 44.8567C13.8953 44.9526 14.0866 45.0484 14.3744 45.0484V50.6197C13.4163 50.3313 12.4575 50.0437 11.5952 49.6595C11.5952 49.6595 11.4995 49.6595 11.4995 49.5636L11.4987 47.4498ZM16.2897 51.1964V45.5294C17.2478 45.7212 18.2066 45.9137 19.1646 46.1054V51.8683C18.2066 51.6766 17.2485 51.4841 16.2897 51.1965V51.1964ZM21.0816 52.1567V46.3937C22.0396 46.4896 22.9984 46.5855 23.9565 46.778V52.5409C22.9984 52.4451 22.0404 52.3484 21.0816 52.1567ZM28.7483 52.8293C27.7903 52.8293 26.8314 52.7334 25.8734 52.7334V46.9705C26.8315 47.0664 27.7903 47.0664 28.7483 47.0664V52.8293ZM9.58194 43.3197V48.7942C8.52747 48.3141 7.56942 47.7373 6.70703 47.1613V41.7825C7.56942 42.3593 8.52747 42.8394 9.58194 43.3195V43.3197ZM1.91518 37.8452C2.58628 38.7095 3.44867 39.5739 4.50233 40.3423C4.59798 40.4381 4.69363 40.534 4.79007 40.6307V45.8176C2.96963 44.1847 1.91516 42.3593 1.91516 40.3431L1.91518 37.8452ZM54.239 38.4211C53.9513 38.7095 53.5679 38.9012 53.281 39.1896C52.8976 39.478 52.5142 39.6698 52.1308 39.9581C51.8431 40.1499 51.6518 40.2465 51.3641 40.4383C46.189 43.3197 38.331 45.241 29.6105 45.241C25.0109 45.241 20.6024 44.6651 16.7687 43.7999C16.2896 43.704 15.9063 43.6082 15.5229 43.5115C15.1395 43.4156 14.7562 43.3198 14.3728 43.1273C11.9769 42.3588 9.8687 41.4944 8.04747 40.4375C4.31011 38.3245 2.00991 35.6347 2.00991 32.7532C2.00991 29.4874 5.07685 26.4135 9.96441 24.1088C11.8813 31.2171 24.1477 36.5957 39.3853 36.5957C46.2853 36.5957 52.5141 35.5388 57.498 33.7142C57.1146 35.3478 55.9645 36.9806 54.2396 38.421L54.239 38.4211ZM39.289 1.92164C54.3347 1.92164 67.0809 7.58863 67.0809 14.4085C67.0809 17.2899 64.7807 19.9797 61.0433 22.0927C59.2229 23.1496 57.1139 24.014 54.718 24.7825C54.3346 24.8784 53.9512 24.9742 53.5679 25.1667C53.1845 25.2626 52.7055 25.3585 52.3221 25.4551C48.4892 26.4154 44.0806 26.8963 39.4802 26.8963C30.759 26.8963 22.901 24.975 17.7267 22.0935C17.439 21.9018 17.2477 21.8051 16.9599 21.6134C16.5766 21.4216 16.1932 21.1333 15.8098 20.8449C15.4264 20.5565 15.1387 20.3648 14.8518 20.0764C12.8393 18.3476 11.5934 16.4264 11.5934 14.3134C11.4985 7.58874 24.244 1.92154 39.2902 1.92154L39.289 1.92164ZM67.0809 22.0927C67.0809 24.014 66.0264 25.8386 64.206 27.5672V22.3803C64.3016 22.2844 64.3973 22.1886 64.4937 22.0919C65.4517 21.3234 66.3141 20.459 67.0809 19.5948L67.0809 22.0927ZM57.4974 27.4715V31.409C57.4974 31.409 57.4017 31.409 57.4017 31.5049C56.5393 31.8891 55.5813 32.1775 54.6225 32.4651V26.8939C54.9103 26.798 55.1016 26.7021 55.3893 26.7021C55.7727 26.6063 56.0604 26.5104 56.4438 26.3179C56.8271 26.222 57.2105 26.0295 57.4982 25.9337L57.4974 27.4715ZM38.331 28.816V34.5789C37.373 34.5789 36.4141 34.483 35.4561 34.483V28.7201C36.4141 28.7201 37.3722 28.816 38.331 28.816ZM33.5391 28.5284V34.2913C32.5811 34.1954 31.6223 34.0996 30.6642 33.9071V28.1441C31.6223 28.3358 32.5811 28.4317 33.5391 28.5284ZM28.7473 27.9516V33.6186C27.7893 33.4269 26.8304 33.2343 25.8724 32.9459V27.2789C26.8304 27.5673 27.7893 27.7599 28.7473 27.9516ZM23.9555 26.7988V32.4658C22.901 32.1774 21.9429 31.7932 21.0805 31.409V25.8377C22.0394 26.2227 22.9974 26.5111 23.9555 26.7987V26.7988ZM19.1636 25.0701V30.5446C18.1091 30.0645 17.1511 29.4878 16.2887 28.9118V23.533C17.1519 24.1098 18.1099 24.5899 19.1636 25.07V25.0701ZM52.7045 27.2798V32.9468C51.7465 33.1386 50.7876 33.427 49.8296 33.6195V27.9525C50.7884 27.76 51.7465 27.5674 52.7045 27.2798ZM47.9135 28.2401V34.003C46.9554 34.0989 45.9966 34.2914 45.0386 34.3872V28.6243C45.9966 28.4318 46.9547 28.3359 47.9135 28.2401ZM43.1216 28.7202V34.4831C42.1636 34.579 41.2047 34.579 40.2467 34.579V28.8161C41.2048 28.8161 42.1628 28.7202 43.1216 28.7202ZM59.4131 25.0702C60.4676 24.5901 61.4256 24.11 62.288 23.6291V29.0079C61.4256 29.5839 60.4676 30.0648 59.4131 30.6408V25.0702ZM11.4967 19.5957C11.7844 19.98 12.1677 20.4601 12.5511 20.8443C12.8388 21.1327 13.1258 21.3244 13.4135 21.6128C13.6048 21.8046 13.7969 21.9971 14.0846 22.0929C14.1803 22.1888 14.2759 22.2847 14.3723 22.2847V27.4716C12.9345 26.1271 11.9764 24.6861 11.5932 23.2456C11.4975 22.9572 11.4975 22.573 11.4975 22.1888V21.997V21.1327L11.4967 19.5957ZM57.4968 40.3422V40.5339C57.4968 40.9182 57.4011 41.2065 57.4011 41.5908C57.1134 43.1278 56.1554 44.5682 54.6219 45.8167V40.6298C54.7176 40.534 54.8132 40.4381 54.9097 40.4381C55.1009 40.2464 55.293 40.0539 55.5808 39.958C55.8685 39.6696 56.1554 39.4779 56.4432 39.1895C56.8265 38.8052 57.2099 38.421 57.4976 37.9409V39.5737L57.4968 40.3422Z" fill="#009BD9"/>
</svg>
