<svg width="62" height="73" viewBox="0 0 62 73" fill="none" xmlns="http://www.w3.org/2000/svg">
<path d="M27.3019 59.9483C42.3574 59.9483 54.6032 47.6743 54.6032 32.5914C54.6106 26.5997 52.6428 20.7727 49.0053 16.0124C48.988 15.9808 48.9693 15.9497 48.9494 15.9199C48.9041 15.8534 48.8513 15.7919 48.7935 15.736C46.3083 12.5545 43.1528 9.95933 39.5508 8.13623C39.5042 8.10206 39.4551 8.07163 39.4036 8.04492C39.347 8.01696 39.2887 7.99336 39.2284 7.9741C35.7382 6.27344 31.9242 5.33923 28.0426 5.23364C24.1617 5.12804 20.3024 5.85416 16.7246 7.36237C16.642 7.38784 16.5619 7.422 16.4867 7.46549C11.5901 9.59231 7.42219 13.1024 4.49345 17.5655C1.56407 22.0284 0.00254424 27.2492 0 32.5875V32.6167C0.0161496 47.6915 12.2566 59.9498 27.3013 59.9498L27.3019 59.9483ZM27.6845 57.5947C27.2242 54.1325 29.635 49.1595 34.5315 43.5101C36.2683 41.5069 36.1713 38.8286 34.2948 36.9961C33.6861 36.4004 33.3563 35.2426 33.3432 33.6456C33.3302 31.9747 33.8271 30.8511 34.8638 30.1907C38.5714 27.8533 48.0881 31.4113 52.2394 33.3293C51.8524 46.6475 41.0195 57.3883 27.6859 57.5903L27.6845 57.5947ZM39.3037 10.6757C41.9039 12.1149 44.2283 14.0033 46.1693 16.253C44.7395 16.9282 42.9512 17.3444 41.0728 17.4208C38.6726 17.5177 36.9999 17.0264 36.4042 16.4972C36.2117 16.3263 36.1794 16.2543 36.3216 15.9791C37.477 13.7691 38.6348 11.8037 39.31 10.6713L39.3037 10.6757ZM17.2086 9.71668C20.0535 10.3049 23.9276 11.8659 23.8847 13.5865C23.802 16.9121 21.0901 19.6327 20.2634 20.3863C19.4367 21.1391 17.2098 23.9163 17.7142 26.783C18.0528 28.6948 19.4659 30.1838 21.9164 31.1956C23.2251 31.7342 23.9196 32.6342 24.1035 34.0312C24.3873 36.189 23.3133 37.9228 22.1239 38.6837C21.568 39.0396 20.4561 39.5235 19.2529 38.7663C14.8507 35.9934 10.8368 36.1823 7.95103 39.3005C7.73922 39.5297 7.62616 39.511 7.54355 39.4974C7.34044 39.4638 6.21988 39.1297 4.2284 35.8586L4.22902 35.858C3.54203 34.7182 2.91591 33.5429 2.35376 32.3366C2.40345 27.5395 3.83025 22.8579 6.46335 18.8483C9.09695 14.8381 12.8265 11.6691 17.2086 9.71673L17.2086 9.71668ZM7.16136 41.8187C7.31043 41.8435 7.46075 41.8565 7.61169 41.8565C8.40676 41.8466 9.1596 41.4988 9.68254 40.8994C11.7696 38.6432 14.5686 38.5962 18.0028 40.7521C19.6588 41.7963 21.6801 41.7628 23.3963 40.6608C25.6127 39.2415 26.807 36.5177 26.4411 33.7201C26.1467 31.4965 24.8951 29.8677 22.8142 29.0136C21.1595 28.3341 20.224 27.4458 20.0357 26.3749C19.7108 24.5264 21.4861 22.4579 21.8494 22.1287C23.1365 20.9523 26.1385 17.7881 26.2416 13.645C26.2919 11.6008 24.7117 9.90444 21.547 8.60116C21.3644 8.526 21.1824 8.45394 21.0016 8.38811H21.0004C26.3838 6.98119 32.0836 7.41786 37.1897 9.62917C36.4928 10.8056 35.3659 12.7281 34.2404 14.8872C33.6112 16.0978 33.8373 17.3551 34.8467 18.2526C35.9411 19.2247 38.0195 19.7825 40.4904 19.7825C40.7153 19.7825 40.9433 19.7781 41.1743 19.7694C43.5583 19.6725 45.8548 19.0868 47.6548 18.1382C50.2835 21.8441 51.8495 26.1984 52.1818 30.7297C50.224 29.8812 48.2214 29.1376 46.1839 28.5016C40.3607 26.7114 36.1305 26.609 33.6113 28.1953C31.8533 29.3041 30.9726 31.1371 30.9918 33.6608C31.0111 35.9305 31.5701 37.6189 32.654 38.6767C33.6249 39.6252 33.6646 40.9166 32.7552 41.9657C29.034 46.2591 24.8566 52.3235 25.3082 57.5169C14.3965 56.6473 5.44248 48.7121 3.00796 38.2888C4.49065 40.4374 5.8572 41.5965 7.1616 41.8188L7.16136 41.8187Z" fill="#009BD9"/>
<path d="M61.1867 31.9235C61.114 26.5841 59.7823 21.3379 57.3007 16.6096C54.8193 11.8814 51.2575 7.80604 46.9045 4.71335C46.884 4.69969 46.8703 4.6767 46.8697 4.65124C46.8678 4.63012 46.8765 4.609 46.8927 4.59533L49.7376 2.10515C49.9935 1.90639 50.1563 1.61071 50.1867 1.28772C50.2171 0.964731 50.1134 0.643584 49.8991 0.4001C49.6854 0.156616 49.3804 0.0118797 49.0562 0.000700934C48.7319 -0.0104799 48.4176 0.112508 48.1872 0.340469L45.3399 2.84066C44.7852 3.33075 44.4845 4.04694 44.5224 4.78606C44.5609 5.5246 44.9343 6.20601 45.5368 6.63588C49.5891 9.51373 52.9055 13.307 55.2162 17.7086C57.5262 22.1095 58.7654 26.9936 58.8331 31.9635C58.9555 40.4708 55.7796 48.4868 49.8905 54.5357C44.1852 60.3763 36.4363 63.7772 28.2755 64.0219C20.1136 64.2666 12.1752 61.3372 6.12949 55.8488C5.58226 55.3494 4.84992 55.1041 4.11255 55.1736C3.37524 55.2426 2.70129 55.6196 2.25652 56.2122L0.235917 58.8969C-0.154163 59.4168 -0.0485771 60.1541 0.471339 60.5441C0.991239 60.9336 1.72855 60.8286 2.11858 60.3087L4.13664 57.6185H4.13602C4.18074 57.5563 4.25031 57.5172 4.32609 57.511C4.40559 57.5023 4.4851 57.5296 4.54349 57.5843C10.7669 63.2548 18.8859 66.3929 27.3049 66.3816H27.7273C28.2845 66.3742 28.841 66.3549 29.3938 66.3214L29.3931 70.6471H25.3985C24.7488 70.6471 24.2221 71.1738 24.2221 71.8235C24.2221 72.4733 24.7488 73 25.3985 73H35.7414C36.3911 73 36.9178 72.4733 36.9178 71.8235C36.9178 71.1738 36.3911 70.6471 35.7414 70.6471H31.7467V66.0978C39.2895 65.1319 46.2804 61.6317 51.5727 56.1711C57.9017 49.6714 61.3143 41.061 61.1863 31.9245L61.1867 31.9235Z" fill="#009BD9"/>
</svg>
