<svg width="23" height="17" viewBox="0 0 23 17" fill="none" xmlns="http://www.w3.org/2000/svg">
<g clip-path="url(#clip0_2_469)">
<path d="M0 11.3334H23V17H0V11.3334Z" fill="#1EB53A"/>
<path d="M0 0H23V5.66667H0V0Z" fill="#0099B5"/>
<path d="M0 5.43994H23V11.5599H0V5.43994Z" fill="#CE1126"/>
<path d="M0 5.78003H23V11.22H0V5.78003Z" fill="white"/>
<path d="M4.83001 4.76005C5.97324 4.76005 6.90001 3.84671 6.90001 2.72005C6.90001 1.59339 5.97324 0.680054 4.83001 0.680054C3.68678 0.680054 2.76001 1.59339 2.76001 2.72005C2.76001 3.84671 3.68678 4.76005 4.83001 4.76005Z" fill="white"/>
<path d="M5.52001 4.76005C6.66324 4.76005 7.59001 3.84671 7.59001 2.72005C7.59001 1.59339 6.66324 0.680054 5.52001 0.680054C4.37678 0.680054 3.45001 1.59339 3.45001 2.72005C3.45001 3.84671 4.37678 4.76005 5.52001 4.76005Z" fill="#0099B5"/>
<path d="M9.3833 3.9447L9.2522 4.3323L9.4523 4.4003" fill="white"/>
<path d="M9.3833 3.9447L9.5144 4.3323L9.3143 4.4003" fill="white"/>
<path d="M9.77683 4.22726L9.3624 4.22273L9.35935 4.4321" fill="white"/>
<path d="M9.77663 4.22697L9.44406 4.46943L9.31606 4.30181" fill="white"/>
<path d="M8.98997 4.22697L9.32254 4.46943L9.45054 4.30181" fill="white"/>
<path d="M8.98977 4.22726L9.4042 4.22273L9.40725 4.4321" fill="white"/>
<path d="M9.62692 4.68297L9.50108 4.29337L9.29904 4.35379" fill="white"/>
<path d="M9.62675 4.683L9.28941 4.44474L9.41019 4.27417" fill="white"/>
<path d="M9.14021 4.6825L9.47734 4.44537L9.35557 4.27414" fill="white"/>
<path d="M9.14019 4.68261L9.26472 4.29316L9.46749 4.35445" fill="white"/>
<path d="M9.3833 3.9447L9.2522 4.3323L9.4523 4.4003" fill="white"/>
<path d="M9.3833 3.9447L9.5144 4.3323L9.3143 4.4003" fill="white"/>
<path d="M9.77683 4.22726L9.3624 4.22273L9.35935 4.4321" fill="white"/>
<path d="M9.77663 4.22697L9.44406 4.46943L9.31606 4.30181" fill="white"/>
<path d="M8.98997 4.22697L9.32254 4.46943L9.45054 4.30181" fill="white"/>
<path d="M8.98977 4.22726L9.4042 4.22273L9.40725 4.4321" fill="white"/>
<path d="M9.62692 4.68297L9.50108 4.29337L9.29904 4.35379" fill="white"/>
<path d="M9.62675 4.683L9.28941 4.44474L9.41019 4.27417" fill="white"/>
<path d="M9.14021 4.6825L9.47734 4.44537L9.35557 4.27414" fill="white"/>
<path d="M9.14019 4.68261L9.26472 4.29316L9.46749 4.35445" fill="white"/>
<path d="M9.3833 3.9447L9.2522 4.3323L9.4523 4.4003" fill="white"/>
<path d="M9.3833 3.9447L9.5144 4.3323L9.3143 4.4003" fill="white"/>
<path d="M9.77683 4.22726L9.3624 4.22273L9.35935 4.4321" fill="white"/>
<path d="M9.77663 4.22697L9.44406 4.46943L9.31606 4.30181" fill="white"/>
<path d="M8.98997 4.22697L9.32254 4.46943L9.45054 4.30181" fill="white"/>
<path d="M8.98977 4.22726L9.4042 4.22273L9.40725 4.4321" fill="white"/>
<path d="M9.62692 4.68297L9.50108 4.29337L9.29904 4.35379" fill="white"/>
<path d="M9.62675 4.683L9.28941 4.44474L9.41019 4.27417" fill="white"/>
<path d="M9.14021 4.6825L9.47734 4.44537L9.35557 4.27414" fill="white"/>
<path d="M9.14019 4.68261L9.26472 4.29316L9.46749 4.35445" fill="white"/>
<path d="M9.3833 3.9447L9.2522 4.3323L9.4523 4.4003" fill="white"/>
<path d="M9.3833 3.9447L9.5144 4.3323L9.3143 4.4003" fill="white"/>
<path d="M9.77683 4.22726L9.3624 4.22273L9.35935 4.4321" fill="white"/>
<path d="M9.77663 4.22697L9.44406 4.46943L9.31606 4.30181" fill="white"/>
<path d="M8.98997 4.22697L9.32254 4.46943L9.45054 4.30181" fill="white"/>
<path d="M8.98977 4.22726L9.4042 4.22273L9.40725 4.4321" fill="white"/>
<path d="M9.62692 4.68297L9.50108 4.29337L9.29904 4.35379" fill="white"/>
<path d="M9.62675 4.683L9.28941 4.44474L9.41019 4.27417" fill="white"/>
<path d="M9.14021 4.6825L9.47734 4.44537L9.35557 4.27414" fill="white"/>
<path d="M9.14019 4.68261L9.26472 4.29316L9.46749 4.35445" fill="white"/>
<path d="M9.3833 3.9447L9.2522 4.3323L9.4523 4.4003" fill="white"/>
<path d="M9.3833 3.9447L9.5144 4.3323L9.3143 4.4003" fill="white"/>
<path d="M9.77683 4.22726L9.3624 4.22273L9.35935 4.4321" fill="white"/>
<path d="M9.77663 4.22697L9.44406 4.46943L9.31606 4.30181" fill="white"/>
<path d="M8.98997 4.22697L9.32254 4.46943L9.45054 4.30181" fill="white"/>
<path d="M8.98977 4.22726L9.4042 4.22273L9.40725 4.4321" fill="white"/>
<path d="M9.62692 4.68297L9.50108 4.29337L9.29904 4.35379" fill="white"/>
<path d="M9.62675 4.683L9.28941 4.44474L9.41019 4.27417" fill="white"/>
<path d="M9.14021 4.6825L9.47734 4.44537L9.35557 4.27414" fill="white"/>
<path d="M9.14019 4.68261L9.26472 4.29316L9.46749 4.35445" fill="white"/>
<path d="M9.3833 3.9447L9.2522 4.3323L9.4523 4.4003" fill="white"/>
<path d="M9.3833 3.9447L9.5144 4.3323L9.3143 4.4003" fill="white"/>
<path d="M9.77683 4.22726L9.3624 4.22273L9.35935 4.4321" fill="white"/>
<path d="M9.77663 4.22697L9.44406 4.46943L9.31606 4.30181" fill="white"/>
<path d="M8.98997 4.22697L9.32254 4.46943L9.45054 4.30181" fill="white"/>
<path d="M8.98977 4.22726L9.4042 4.22273L9.40725 4.4321" fill="white"/>
<path d="M9.62692 4.68297L9.50108 4.29337L9.29904 4.35379" fill="white"/>
<path d="M9.62675 4.683L9.28941 4.44474L9.41019 4.27417" fill="white"/>
<path d="M9.14021 4.6825L9.47734 4.44537L9.35557 4.27414" fill="white"/>
<path d="M9.14019 4.68261L9.26472 4.29316L9.46749 4.35445" fill="white"/>
<path d="M9.3833 3.9447L9.2522 4.3323L9.4523 4.4003" fill="white"/>
<path d="M9.3833 3.9447L9.5144 4.3323L9.3143 4.4003" fill="white"/>
<path d="M9.77683 4.22726L9.3624 4.22273L9.35935 4.4321" fill="white"/>
<path d="M9.77663 4.22697L9.44406 4.46943L9.31606 4.30181" fill="white"/>
<path d="M8.98997 4.22697L9.32254 4.46943L9.45054 4.30181" fill="white"/>
<path d="M8.98977 4.22726L9.4042 4.22273L9.40725 4.4321" fill="white"/>
<path d="M9.62692 4.68297L9.50108 4.29337L9.29904 4.35379" fill="white"/>
<path d="M9.62675 4.683L9.28941 4.44474L9.41019 4.27417" fill="white"/>
<path d="M9.14021 4.6825L9.47734 4.44537L9.35557 4.27414" fill="white"/>
<path d="M9.14019 4.68261L9.26472 4.29316L9.46749 4.35445" fill="white"/>
<path d="M9.3833 3.9447L9.2522 4.3323L9.4523 4.4003" fill="white"/>
<path d="M9.3833 3.9447L9.5144 4.3323L9.3143 4.4003" fill="white"/>
<path d="M9.77683 4.22726L9.3624 4.22273L9.35935 4.4321" fill="white"/>
<path d="M9.77663 4.22697L9.44406 4.46943L9.31606 4.30181" fill="white"/>
<path d="M8.98997 4.22697L9.32254 4.46943L9.45054 4.30181" fill="white"/>
<path d="M8.98977 4.22726L9.4042 4.22273L9.40725 4.4321" fill="white"/>
<path d="M9.62692 4.68297L9.50108 4.29337L9.29904 4.35379" fill="white"/>
<path d="M9.62675 4.683L9.28941 4.44474L9.41019 4.27417" fill="white"/>
<path d="M9.14021 4.6825L9.47734 4.44537L9.35557 4.27414" fill="white"/>
<path d="M9.14019 4.68261L9.26472 4.29316L9.46749 4.35445" fill="white"/>
<path d="M9.3833 3.9447L9.2522 4.3323L9.4523 4.4003" fill="white"/>
<path d="M9.3833 3.9447L9.5144 4.3323L9.3143 4.4003" fill="white"/>
<path d="M9.77683 4.22726L9.3624 4.22273L9.35935 4.4321" fill="white"/>
<path d="M9.77663 4.22697L9.44406 4.46943L9.31606 4.30181" fill="white"/>
<path d="M8.98997 4.22697L9.32254 4.46943L9.45054 4.30181" fill="white"/>
<path d="M8.98977 4.22726L9.4042 4.22273L9.40725 4.4321" fill="white"/>
<path d="M9.62692 4.68297L9.50108 4.29337L9.29904 4.35379" fill="white"/>
<path d="M9.62675 4.683L9.28941 4.44474L9.41019 4.27417" fill="white"/>
<path d="M9.14021 4.6825L9.47734 4.44537L9.35557 4.27414" fill="white"/>
<path d="M9.14019 4.68261L9.26472 4.29316L9.46749 4.35445" fill="white"/>
<path d="M9.3833 3.9447L9.2522 4.3323L9.4523 4.4003" fill="white"/>
<path d="M9.3833 3.9447L9.5144 4.3323L9.3143 4.4003" fill="white"/>
<path d="M9.77683 4.22726L9.3624 4.22273L9.35935 4.4321" fill="white"/>
<path d="M9.77663 4.22697L9.44406 4.46943L9.31606 4.30181" fill="white"/>
<path d="M8.98997 4.22697L9.32254 4.46943L9.45054 4.30181" fill="white"/>
<path d="M8.98977 4.22726L9.4042 4.22273L9.40725 4.4321" fill="white"/>
<path d="M9.62692 4.68297L9.50108 4.29337L9.29904 4.35379" fill="white"/>
<path d="M9.62675 4.683L9.28941 4.44474L9.41019 4.27417" fill="white"/>
<path d="M9.14021 4.6825L9.47734 4.44537L9.35557 4.27414" fill="white"/>
<path d="M9.14019 4.68261L9.26472 4.29316L9.46749 4.35445" fill="white"/>
<path d="M9.3833 3.9447L9.2522 4.3323L9.4523 4.4003" fill="white"/>
<path d="M9.3833 3.9447L9.5144 4.3323L9.3143 4.4003" fill="white"/>
<path d="M9.77683 4.22726L9.3624 4.22273L9.35935 4.4321" fill="white"/>
<path d="M9.77663 4.22697L9.44406 4.46943L9.31606 4.30181" fill="white"/>
<path d="M8.98997 4.22697L9.32254 4.46943L9.45054 4.30181" fill="white"/>
<path d="M8.98977 4.22726L9.4042 4.22273L9.40725 4.4321" fill="white"/>
<path d="M9.62692 4.68297L9.50108 4.29337L9.29904 4.35379" fill="white"/>
<path d="M9.62675 4.683L9.28941 4.44474L9.41019 4.27417" fill="white"/>
<path d="M9.14021 4.6825L9.47734 4.44537L9.35557 4.27414" fill="white"/>
<path d="M9.14019 4.68261L9.26472 4.29316L9.46749 4.35445" fill="white"/>
<path d="M9.3833 3.9447L9.2522 4.3323L9.4523 4.4003" fill="white"/>
<path d="M9.3833 3.9447L9.5144 4.3323L9.3143 4.4003" fill="white"/>
<path d="M9.77683 4.22726L9.3624 4.22273L9.35935 4.4321" fill="white"/>
<path d="M9.77663 4.22697L9.44406 4.46943L9.31606 4.30181" fill="white"/>
<path d="M8.98997 4.22697L9.32254 4.46943L9.45054 4.30181" fill="white"/>
<path d="M8.98977 4.22726L9.4042 4.22273L9.40725 4.4321" fill="white"/>
<path d="M9.62692 4.68297L9.50108 4.29337L9.29904 4.35379" fill="white"/>
<path d="M9.62675 4.683L9.28941 4.44474L9.41019 4.27417" fill="white"/>
<path d="M9.14021 4.6825L9.47734 4.44537L9.35557 4.27414" fill="white"/>
<path d="M9.14019 4.68261L9.26472 4.29316L9.46749 4.35445" fill="white"/>
</g>
<rect x="0.05" y="0.05" width="22.9" height="16.9" rx="2.95" stroke="#009BD9" stroke-width="0.1"/>
<defs>
<clipPath id="clip0_2_469">
<rect width="23" height="17" rx="3" fill="white"/>
</clipPath>
</defs>
</svg>
