<svg width="54" height="55" viewBox="0 0 54 55" fill="none" xmlns="http://www.w3.org/2000/svg">
<path d="M26.6462 0.85376C11.96 0.85376 0 12.8137 0 27.4999C0 42.1862 11.96 54.1461 26.6462 54.1461C41.3324 54.1461 53.2924 42.1862 53.2924 27.4999C53.293 12.8137 41.3331 0.85376 26.6462 0.85376ZM38.2344 25.704C37.8625 26.0759 37.3667 26.2618 36.9329 26.2618C36.4991 26.2618 36.0032 26.0759 35.6314 25.704L28.5056 18.6395V40.8858C28.5056 41.9394 27.6999 42.7451 26.6463 42.7451C25.5928 42.7451 24.7871 41.9394 24.7871 40.8858V18.5774L17.7231 25.7039C17.3513 26.0757 16.8555 26.2616 16.4216 26.2616C15.9878 26.2616 15.492 26.0757 15.1202 25.7039C14.3765 24.9601 14.3765 23.7826 15.1202 23.1009L25.3449 12.8762C25.7167 12.5043 26.2125 12.3184 26.6463 12.3184C27.1421 12.3184 27.576 12.5043 27.9478 12.8762L38.1725 23.1009C38.9162 23.7826 38.9161 24.9603 38.2344 25.704Z" fill="white"/>
</svg>
