<svg width="189" height="51" viewBox="0 0 189 51" fill="none" xmlns="http://www.w3.org/2000/svg">
<g clip-path="url(#clip0_308_16)">
<path fill-rule="evenodd" clip-rule="evenodd" d="M16.1576 0.52789C22.9607 -0.105651 28.382 -0.105651 35.2914 0.52789C43.7953 1.37261 50.067 7.49683 50.9174 16.0496C51.5552 22.8074 51.5552 28.2981 50.9174 35.0558C50.9174 35.3726 50.8111 35.6894 50.8111 36.0062C44.4331 30.0931 27.1064 18.0558 45.9213 15.6273C46.4528 15.5217 46.7717 15.0993 46.6654 14.5714C46.5591 14.0434 46.1339 13.7266 45.7087 13.7266H14.6694C14.1379 13.7266 13.7127 14.149 13.7127 14.677C13.7127 14.9937 13.9253 15.3105 14.1379 15.4161L49.9607 39.1739C47.8347 45.5093 42.3072 49.8385 35.2914 50.472C28.4883 51.1055 23.067 51.1055 16.1576 50.472C7.54732 49.6273 1.38196 43.503 0.531569 34.9503C-0.106226 28.1925 -0.106226 22.7018 0.531569 15.944C0.531569 15.6273 0.637868 15.3105 0.637868 14.9937C7.01582 20.9068 24.3426 32.944 5.52763 35.3726C4.99614 35.4782 4.67724 35.9006 4.78354 36.4285C4.88984 36.8509 5.20873 37.1676 5.63393 37.2732H36.567C37.0985 37.2732 37.5237 36.8509 37.5237 36.3229C37.5237 36.0062 37.3111 35.6894 37.0985 35.5838L1.38196 11.826C3.61425 5.49062 9.03551 1.16143 16.1576 0.52789Z" fill="white"/>
<path fill-rule="evenodd" clip-rule="evenodd" d="M106.817 11.4772C106.392 10.5269 105.648 9.68221 104.797 9.04867C103.309 7.99277 101.608 7.78159 99.6951 8.20395C97.888 8.62631 96.5061 9.68221 95.762 11.4772L89.2777 26.0487C89.1714 26.1543 89.1714 26.3654 89.0651 26.5766C88.8525 27.4213 89.1714 28.0549 89.9155 28.4772C90.1281 28.5828 90.447 28.6884 90.7659 28.6884C91.51 28.6884 92.0415 28.3717 92.3604 27.8437L94.2738 23.6201H108.412L110.325 27.8437C110.431 28.0549 110.644 28.2661 110.856 28.4772C111.494 28.8996 112.132 28.8996 112.77 28.4772C112.876 28.3716 113.089 28.2661 113.195 28.1605C113.727 27.6325 113.833 26.8934 113.408 26.0487L106.817 11.4772ZM95.762 20.03L98.8447 13.1667C98.8447 13.0611 98.951 12.9555 99.0573 12.7443C99.5888 11.8996 100.439 11.4772 101.502 11.4772C102.565 11.5828 103.309 12.1108 103.734 13.0611L106.817 19.9244H95.762V20.03Z" fill="white"/>
<path fill-rule="evenodd" clip-rule="evenodd" d="M134.264 8H124.804C123.103 8 121.615 8.52795 120.339 9.58385C118.745 10.9565 118 12.646 118 14.7578C118 22.7826 118 26.795 118 26.795C118 27.0062 118.107 27.323 118.213 27.5342C118.532 28.1677 119.063 28.5901 119.808 28.5901C120.02 28.5901 120.339 28.4845 120.552 28.3789C121.189 28.0621 121.615 27.5342 121.615 26.795C121.615 26.0559 121.615 24.8944 121.615 23.4161C121.615 21.9379 121.615 20.7764 121.615 20.0373H134.371C135.859 20.0373 137.134 19.6149 138.197 18.6646C139.686 17.3975 140.43 15.9193 140.43 14.0186C140.43 12.5404 139.898 11.2733 139.048 10.2174C137.666 8.63354 136.071 8 134.264 8ZM136.39 15.1801C135.965 16.0248 135.221 16.4472 134.264 16.4472H121.508V14.7578C121.508 14.1242 121.721 13.4907 122.04 12.9627C122.678 12.0124 123.634 11.4845 124.804 11.4845H134.264C134.689 11.4845 135.115 11.5901 135.54 11.8012C136.39 12.2236 136.815 12.9627 136.815 13.913C136.709 14.3354 136.603 14.7578 136.39 15.1801Z" fill="white"/>
<path fill-rule="evenodd" clip-rule="evenodd" d="M187.193 24.9192H178.689C176.989 24.9192 175.607 24.3912 174.331 23.3353C172.737 21.9627 171.993 20.2732 171.993 18.267C171.993 16.5776 172.524 15.0993 173.587 13.8322C174.969 12.2484 176.67 11.5093 178.689 11.5093H187.193C187.406 11.5093 187.725 11.4037 187.937 11.2981C188.575 10.9813 189 10.4534 189 9.71422C189 9.50304 188.894 9.18627 188.788 8.97509C188.469 8.34155 187.937 7.91919 187.193 7.91919C187.193 7.91919 185.812 7.91919 182.941 7.91919C180.071 7.91919 178.689 7.91919 178.689 7.91919C175.819 7.91919 173.374 8.97509 171.355 10.9813C169.335 12.9875 168.378 15.4161 168.378 18.1614C168.378 21.0124 169.441 23.4409 171.461 25.4471C173.481 27.4534 175.819 28.4037 178.689 28.4037H187.193C187.406 28.4037 187.725 28.4037 187.937 28.1925C188.575 27.8757 189 27.3478 189 26.6086C189 26.3975 188.894 26.0807 188.788 25.8695C188.469 25.236 187.937 24.9192 187.193 24.9192Z" fill="white"/>
<path fill-rule="evenodd" clip-rule="evenodd" d="M68.5633 38.6458V34.8446H64.6302L64.5239 36.4285C64.4176 37.5899 64.3113 38.6458 63.6735 38.6458H63.4609V40.6521H64.5239V39.5962H68.2444V40.6521H69.3074V38.6458H68.5633ZM65.5869 36.534V35.7949H67.394V38.6458H65.0554C65.4806 38.2235 65.5869 37.3788 65.5869 36.534ZM74.835 37.1676C74.835 35.6893 73.772 34.739 72.3901 34.739C71.0082 34.739 69.9452 35.7949 69.9452 37.1676C69.9452 38.5403 71.0082 39.5962 72.6027 39.5962C73.4531 39.5962 74.0909 39.2794 74.5161 38.857L73.8783 38.1179C73.5594 38.4347 73.1342 38.6458 72.6027 38.6458C71.7523 38.6458 71.2208 38.2235 71.0082 37.4844H74.835C74.835 37.3788 74.835 37.2732 74.835 37.1676ZM72.3901 35.5837C73.1342 35.5837 73.6657 36.0061 73.772 36.7452H71.0082C71.1145 36.1117 71.646 35.5837 72.3901 35.5837ZM76.0042 39.5962H77.1735V37.6955H79.6184V39.5962H80.7877V34.8446H79.6184V36.7452H77.1735V34.8446H76.0042V39.5962ZM86.7405 37.1676C86.7405 35.6893 85.6775 34.739 84.2956 34.739C82.9137 34.739 81.8507 35.7949 81.8507 37.1676C81.8507 38.5403 82.9137 39.5962 84.5082 39.5962C85.3586 39.5962 85.9964 39.2794 86.4216 38.857L85.7838 38.1179C85.4649 38.4347 85.0397 38.6458 84.5082 38.6458C83.6578 38.6458 83.1263 38.2235 82.9137 37.4844H86.7405C86.7405 37.3788 86.7405 37.2732 86.7405 37.1676ZM84.2956 35.5837C85.0397 35.5837 85.5712 36.0061 85.6775 36.7452H82.9137C83.02 36.1117 83.5515 35.5837 84.2956 35.5837ZM93.5436 39.5962H94.9255L93.331 37.1676L94.8192 34.8446H93.5436L92.3743 36.7452H91.5239V34.8446H90.3546V36.7452H89.5042L88.3349 34.8446H87.1657L88.6538 37.1676L87.1657 39.5962H88.5476L89.7168 37.6955H90.5672V39.5962H91.7365V37.6955H92.5869L93.5436 39.5962ZM95.7759 39.5962H96.9452V37.6955H99.3901V39.5962H100.559V34.8446H99.3901V36.7452H96.9452V34.8446H95.7759V39.5962ZM104.28 36.3229H103.111V34.739H101.941V39.4906H104.174C105.449 39.4906 106.193 38.857 106.193 37.9067C106.193 36.9564 105.555 36.3229 104.28 36.3229ZM106.831 39.4906H108V34.739H106.831V39.4906ZM103.961 38.7514H103.004V37.1676H103.961C104.599 37.1676 105.024 37.3788 105.024 37.9067C105.024 38.4347 104.705 38.7514 103.961 38.7514ZM113.953 37.1676C113.953 35.6893 112.89 34.739 111.508 34.739C110.126 34.739 109.063 35.7949 109.063 37.1676C109.063 38.5403 110.126 39.5962 111.721 39.5962C112.571 39.5962 113.209 39.2794 113.634 38.857L112.996 38.1179C112.677 38.4347 112.252 38.6458 111.721 38.6458C110.87 38.6458 110.339 38.2235 110.126 37.4844H113.953C113.953 37.3788 113.953 37.2732 113.953 37.1676ZM111.508 35.5837C112.252 35.5837 112.784 36.0061 112.89 36.7452H110.126C110.233 36.1117 110.764 35.5837 111.508 35.5837ZM117.674 34.739V39.4906H118.843V35.6893H121.181V39.4906H122.351V34.739H117.674ZM128.303 37.1676C128.303 35.6893 127.24 34.739 125.859 34.739C124.477 34.739 123.414 35.7949 123.414 37.1676C123.414 38.5403 124.477 39.5962 126.071 39.5962C126.922 39.5962 127.559 39.2794 127.985 38.857L127.347 38.1179C127.028 38.4347 126.603 38.6458 126.071 38.6458C125.221 38.6458 124.689 38.2235 124.477 37.4844H128.303C128.303 37.3788 128.303 37.2732 128.303 37.1676ZM125.859 35.5837C126.603 35.5837 127.134 36.0061 127.24 36.7452H124.477C124.583 36.1117 125.114 35.5837 125.859 35.5837ZM132.237 34.739C131.599 34.739 131.067 34.9502 130.642 35.3726V34.739H129.579V41.2856H130.748V38.9626C131.174 39.385 131.705 39.5962 132.237 39.5962C133.618 39.5962 134.681 38.6458 134.681 37.1676C134.681 35.6893 133.618 34.739 132.237 34.739ZM132.024 38.6458C131.174 38.6458 130.642 38.0123 130.642 37.1676C130.642 36.2173 131.28 35.6893 132.024 35.6893C132.874 35.6893 133.406 36.3229 133.406 37.1676C133.512 38.1179 132.874 38.6458 132.024 38.6458ZM140.209 37.1676C140.209 35.6893 139.146 34.739 137.764 34.739C136.382 34.739 135.319 35.7949 135.319 37.1676C135.319 38.5403 136.382 39.5962 137.977 39.5962C138.827 39.5962 139.465 39.2794 139.89 38.857L139.252 38.1179C138.933 38.4347 138.508 38.6458 137.977 38.6458C137.126 38.6458 136.595 38.2235 136.382 37.4844H140.209C140.209 37.3788 140.209 37.2732 140.209 37.1676ZM137.87 35.5837C138.614 35.5837 139.146 36.0061 139.252 36.7452H136.488C136.595 36.1117 137.126 35.5837 137.87 35.5837ZM144.992 37.062C145.418 36.8508 145.737 36.534 145.737 36.0061C145.737 35.267 144.992 34.739 143.823 34.739H141.485V39.4906H143.929C145.205 39.4906 145.843 38.9626 145.843 38.1179C145.843 37.5899 145.524 37.2732 144.992 37.062ZM142.548 35.5837H143.717C144.248 35.5837 144.567 35.7949 144.567 36.2173C144.567 36.6396 144.248 36.8508 143.717 36.8508H142.548V35.5837ZM143.823 38.7514H142.548V37.4844H143.823C144.461 37.4844 144.674 37.6955 144.674 38.1179C144.78 38.5403 144.461 38.7514 143.823 38.7514ZM149.244 39.5962C150.733 39.5962 151.796 38.5403 151.796 37.1676C151.796 35.6893 150.733 34.739 149.244 34.739C147.756 34.739 146.693 35.7949 146.693 37.1676C146.693 38.5403 147.756 39.5962 149.244 39.5962ZM149.244 38.6458C148.394 38.6458 147.863 38.0123 147.863 37.1676C147.863 36.2173 148.5 35.6893 149.244 35.6893C150.095 35.6893 150.626 36.3229 150.626 37.1676C150.626 38.1179 149.988 38.6458 149.244 38.6458ZM157.217 38.6458V34.8446H153.284L153.177 36.4285C153.071 37.5899 152.965 38.6458 152.327 38.6458H152.114V40.6521H153.177V39.5962H156.898V40.6521H157.961V38.6458H157.217ZM154.24 36.534V35.7949H156.048V38.6458H153.709C154.134 38.2235 154.24 37.3788 154.24 36.534ZM161.363 36.3229H160.193V34.739H159.024V39.4906H161.256C162.532 39.4906 163.276 38.857 163.276 37.9067C163.17 36.9564 162.532 36.3229 161.363 36.3229ZM163.807 39.4906H164.977V34.739H163.807V39.4906ZM161.044 38.7514H160.087V37.1676H161.044C161.681 37.1676 162.107 37.3788 162.107 37.9067C162.107 38.4347 161.681 38.7514 161.044 38.7514Z" fill="white"/>
<path fill-rule="evenodd" clip-rule="evenodd" d="M83.9409 10.1118C82.6654 8.63354 81.1772 8 79.2638 8H69.8031C68.1024 8 66.6142 8.52795 65.3386 9.58385C63.7441 10.9565 63 12.646 63 14.7578V21.8323C63 23.5217 63.5315 25 64.7008 26.2671C66.0827 27.8509 67.7835 28.5901 69.8031 28.5901H79.2638C80.752 28.5901 82.0276 28.0621 83.0905 27.2174C84.5787 26.0559 85.3228 24.472 85.3228 22.5714C85.3228 20.882 84.685 19.5093 83.5157 18.2422C84.685 17.0807 85.3228 15.6025 85.3228 13.913C85.3228 12.5404 84.8976 11.2733 83.9409 10.1118ZM81.4961 23.7329C81.0709 24.5776 80.3268 25 79.3701 25H69.9094C69.2717 25 68.7402 24.7888 68.1024 24.472C67.1457 23.8385 66.6142 22.8882 66.6142 21.7267V20.0373H79.3701C79.7953 20.0373 80.2205 20.1429 80.6457 20.354C81.4961 20.7764 81.9213 21.5155 81.9213 22.5714C81.815 22.8882 81.7087 23.3106 81.4961 23.7329ZM81.4961 15.1801C81.0709 16.0248 80.3268 16.4472 79.3701 16.4472H66.6142V14.7578C66.6142 14.1242 66.8268 13.4907 67.1457 12.9627C67.7835 12.0124 68.7402 11.4845 69.9094 11.4845H79.3701C79.7953 11.4845 80.2205 11.5901 80.6457 11.8012C81.4961 12.2236 81.9213 12.9627 81.9213 13.913C81.815 14.3354 81.7087 14.7578 81.4961 15.1801Z" fill="white"/>
<path fill-rule="evenodd" clip-rule="evenodd" d="M148.146 14.0683C148.783 13.118 149.74 12.5901 150.909 12.5901C154.949 12.5901 158.882 12.5901 162.921 12.5901C163.134 12.5901 163.453 12.4845 163.665 12.3789C164.303 12.0621 164.728 11.5342 164.728 10.795C164.728 10.5839 164.622 10.2671 164.516 10.0559C164.197 9.42236 163.665 9 162.921 9C162.921 9 162.177 9 160.583 9C159.094 9 157.181 9 155.055 9C152.929 9 151.547 9 150.803 9C149.102 9 147.614 9.52795 146.339 10.6894C144.744 12.0621 144 13.7516 144 15.7578V22.7267C144 24.4162 144.531 25.8944 145.594 27.1615C146.976 28.7453 148.677 29.4845 150.803 29.4845C154.843 29.4845 158.776 29.4845 162.815 29.4845C163.028 29.4845 163.346 29.4845 163.559 29.2733C164.197 28.9565 164.622 28.4286 164.622 27.6894C164.622 27.4783 164.516 27.1615 164.409 26.9503C164.091 26.3168 163.559 25.8944 162.815 25.8944C158.776 25.8944 154.843 25.8944 150.803 25.8944C150.165 25.8944 149.528 25.6832 148.996 25.3665C148.039 24.7329 147.508 23.7826 147.508 22.6211V20.9317C154.843 20.9317 158.563 20.9317 158.563 20.9317C158.776 20.9317 159.094 20.8261 159.307 20.7205C159.945 20.4037 160.37 19.8758 160.37 19.1366C160.37 18.9255 160.37 18.6087 160.157 18.3975C159.839 17.764 159.307 17.3416 158.563 17.3416H147.508V15.8634C147.614 15.2298 147.72 14.5963 148.146 14.0683Z" fill="white"/>
</g>
<defs>
<clipPath id="clip0_308_16">
<rect width="189" height="51" fill="white"/>
</clipPath>
</defs>
</svg>
